<svg width="14" height="14" viewBox="0 0 14 14" fill="none" xmlns="http://www.w3.org/2000/svg">
<g clip-path="url(#clip0_4_79)">
<path d="M2.92604 3.63622C2.92604 3.08832 3.37026 2.64411 3.91815 2.64411C4.46604 2.64411 4.91026 3.08832 4.91026 3.63622C4.91026 4.18411 4.46604 4.62832 3.91815 4.62832C3.37026 4.62832 2.92604 4.18411 2.92604 3.63622ZM13.6217 0V9.99411V14H0.378418V0H13.6217ZM12.1081 1.51351H1.89193V8.27211L3.8209 6.32573L6.07415 8.54265L10.1822 4.30746L12.1081 6.27881V1.51351ZM12.1081 8.44465L10.186 6.47708L6.09912 10.6911L3.83415 8.46205L1.89193 10.4221V12.4865H12.1081V8.44465Z" fill="#010002"/>
</g>
<defs>
<clipPath id="clip0_4_79">
<rect width="14" height="14" fill="white"/>
</clipPath>
</defs>
</svg>
