<svg width="15" height="15" viewBox="0 0 15 15" fill="none" xmlns="http://www.w3.org/2000/svg">
<g clip-path="url(#clip0_4_73)">
<path d="M9.97165 0.0441895H2.64233V14.1004H12.9722V3.25704L9.97165 0.0441895ZM8.0755 12.3276H4.50694C4.35203 12.3276 4.2172 12.2043 4.2172 12.0379C4.2172 11.883 4.34056 11.7481 4.50694 11.7481H8.0755C8.2304 11.7481 8.36523 11.8715 8.36523 12.0379C8.36523 12.1928 8.24474 12.3276 8.0755 12.3276ZM11.1105 10.4974H4.50694C4.35203 10.4974 4.2172 10.3741 4.2172 10.2077C4.2172 10.0528 4.34056 9.91797 4.50694 9.91797H11.1105C11.2654 9.91797 11.4002 10.0413 11.4002 10.2077C11.4002 10.3741 11.2683 10.4974 11.1105 10.4974ZM11.1105 8.67873H4.50694C4.35203 8.67873 4.2172 8.55538 4.2172 8.389C4.2172 8.23409 4.34056 8.09927 4.50694 8.09927H11.1105C11.2654 8.09927 11.4002 8.22262 11.4002 8.389C11.4002 8.55538 11.2683 8.67873 11.1105 8.67873ZM11.1105 6.86002H4.50694C4.35203 6.86002 4.2172 6.73667 4.2172 6.57029C4.2172 6.40391 4.34056 6.28056 4.50694 6.28056H11.1105C11.2654 6.28056 11.4002 6.40391 11.4002 6.57029C11.4002 6.73667 11.2683 6.86002 11.1105 6.86002ZM11.1105 5.02985H4.50694C4.35203 5.02985 4.2172 4.9065 4.2172 4.74012C4.2172 4.58521 4.34056 4.45039 4.50694 4.45039H11.1105C11.2654 4.45039 11.4002 4.57374 11.4002 4.74012C11.4002 4.90936 11.2683 5.02985 11.1105 5.02985ZM9.39219 3.82503V0.612176L12.3928 3.82503H9.39219Z" fill="black"/>
</g>
<defs>
<clipPath id="clip0_4_73">
<rect width="14.0562" height="14.0562" fill="white" transform="translate(0.779175 0.0441895)"/>
</clipPath>
</defs>
</svg>
