<svg width="11" height="11" viewBox="0 0 11 11" fill="none" xmlns="http://www.w3.org/2000/svg">
<g clip-path="url(#clip0_88_34)">
<path d="M0.814613 11L6.89503 11C7.32838 11 7.68091 10.6475 7.68091 10.2141L7.68091 8.36961L6.96352 8.36961L6.96352 10.2141C6.96352 10.2519 6.93279 10.2826 6.89503 10.2826L0.814613 10.2826C0.776854 10.2826 0.746125 10.2519 0.746125 10.2141L0.746126 4.1337C0.746126 4.09592 0.776854 4.06519 0.814613 4.06519L2.60161 4.06519L2.60161 3.3478L0.814613 3.3478C0.381285 3.3478 0.0287346 3.70035 0.0287346 4.1337L0.028734 10.2141C0.0287579 10.6474 0.381284 11 0.814613 11Z" fill="black"/>
<path d="M4.10493 7.65222L10.1853 7.65222C10.6187 7.65222 10.9712 7.29967 10.9712 6.86632L10.9712 0.785902C10.9712 0.35255 10.6187 -1.54175e-07 10.1853 -1.9206e-07L4.1049 -7.23627e-07C3.67155 -7.61512e-07 3.319 0.35255 3.319 0.785878L3.319 6.86632C3.31898 7.29967 3.67157 7.65222 4.10493 7.65222ZM4.10488 0.717391L10.1853 0.717391C10.2231 0.717391 10.2538 0.74812 10.2538 0.785878L10.2538 6.86632C10.2538 6.9041 10.2231 6.93483 10.1853 6.93483L4.1049 6.93483C4.06712 6.93483 4.03639 6.9041 4.03639 6.86632L4.03639 0.785878L4.03637 0.785878C4.03637 0.748119 4.06712 0.717391 4.10488 0.717391Z" fill="black"/>
</g>
<defs>
<clipPath id="clip0_88_34">
<rect width="11" height="11" fill="white" transform="translate(11 11) rotate(-180)"/>
</clipPath>
</defs>
</svg>
