<svg xmlns="http://www.w3.org/2000/svg">
    <defs>
        <symbol id="error-sign" viewBox="0 0 16 16">
            <path xmlns="http://www.w3.org/2000/svg" d="M7.493 0.015 C 7.442 0.021,7.268 0.039,7.107 0.055 C 5.234 0.242,3.347 1.208,2.071 2.634 C 0.660 4.211,-0.057 6.168,0.009 8.253 C 0.124 11.854,2.599 14.903,6.110 15.771 C 8.169 16.280,10.433 15.917,12.227 14.791 C 14.017 13.666,15.270 11.933,15.771 9.887 C 15.943 9.186,15.983 8.829,15.983 8.000 C 15.983 7.171,15.943 6.814,15.771 6.113 C 14.979 2.878,12.315 0.498,9.000 0.064 C 8.716 0.027,7.683 -0.006,7.493 0.015 M8.853 1.563 C 9.967 1.707,11.010 2.136,11.944 2.834 C 12.273 3.080,12.920 3.727,13.166 4.056 C 13.727 4.807,14.142 5.690,14.330 6.535 C 14.544 7.500,14.544 8.500,14.330 9.465 C 13.916 11.326,12.605 12.978,10.867 13.828 C 10.239 14.135,9.591 14.336,8.880 14.444 C 8.456 14.509,7.544 14.509,7.120 14.444 C 5.172 14.148,3.528 13.085,2.493 11.451 C 2.279 11.114,1.999 10.526,1.859 10.119 C 1.618 9.422,1.514 8.781,1.514 8.000 C 1.514 6.961,1.715 6.075,2.160 5.160 C 2.500 4.462,2.846 3.980,3.413 3.413 C 3.980 2.846,4.462 2.500,5.160 2.160 C 6.313 1.599,7.567 1.397,8.853 1.563 M7.706 4.290 C 7.482 4.363,7.355 4.491,7.293 4.705 C 7.257 4.827,7.253 5.106,7.259 6.816 C 7.267 8.786,7.267 8.787,7.325 8.896 C 7.398 9.033,7.538 9.157,7.671 9.204 C 7.803 9.250,8.197 9.250,8.329 9.204 C 8.462 9.157,8.602 9.033,8.675 8.896 C 8.733 8.787,8.733 8.786,8.741 6.816 C 8.749 4.664,8.749 4.662,8.596 4.481 C 8.472 4.333,8.339 4.284,8.040 4.276 C 7.893 4.272,7.743 4.278,7.706 4.290 M7.786 10.530 C 7.597 10.592,7.410 10.753,7.319 10.932 C 7.249 11.072,7.237 11.325,7.294 11.495 C 7.388 11.780,7.697 12.000,8.000 12.000 C 8.303 12.000,8.612 11.780,8.706 11.495 C 8.763 11.325,8.751 11.072,8.681 10.932 C 8.616 10.804,8.460 10.646,8.333 10.580 C 8.217 10.520,7.904 10.491,7.786 10.530 " stroke="none" fill-rule="evenodd"/>
        </symbol>    
        <symbol id="close" viewBox="0 0 24 24">
            <path d="M18 6L6 18" stroke="#CED1D8" stroke-width="2" stroke-linecap="round" stroke-linejoin="round"/>
            <path d="M6 6L18 18" stroke="#CED1D8" stroke-width="2" stroke-linecap="round" stroke-linejoin="round"/>
        </symbol>    
        <!-- ^ ему убрать color #CED1D8 и назначить в css -->
        <symbol id="star" viewBox="0 0 66 65" fill="none">
            <path d="M27.6432 2.66458C30.7139 -0.00930882 35.2861 -0.00930858 38.3568 2.66458C40.1516 4.22742 42.5393 4.92854 44.8941 4.58412C48.923 3.99484 52.7694 6.46677 53.907 10.3763C54.5719 12.6614 56.2016 14.5421 58.3688 15.5255C62.0766 17.2079 63.976 21.367 62.8194 25.2709C62.1433 27.5527 62.4975 30.016 63.789 32.0149C65.9987 35.4349 65.348 39.9606 62.2643 42.6195C60.4619 44.1735 59.4281 46.4372 59.4339 48.8171C59.4439 52.8888 56.4497 56.3442 52.418 56.9139C50.0616 57.2468 47.9681 58.5923 46.6863 60.5974C44.4933 64.0281 40.1063 65.3163 36.4067 63.6158C34.2443 62.6219 31.7557 62.6219 29.5933 63.6158C25.8937 65.3163 21.5067 64.0281 19.3137 60.5974C18.0319 58.5923 15.9384 57.2468 13.582 56.9139C9.55031 56.3442 6.55615 52.8888 6.56606 48.8171C6.57186 46.4372 5.53806 44.1735 3.7357 42.6195C0.652027 39.9606 0.00133204 35.4349 2.211 32.0149C3.50251 30.016 3.85668 27.5527 3.18064 25.2709C2.02399 21.367 3.92336 17.2079 7.63123 15.5255C9.79841 14.5421 11.4281 12.6614 12.093 10.3763C13.2306 6.46677 17.077 3.99484 21.1059 4.58412C23.4607 4.92854 25.8484 4.22742 27.6432 2.66458Z" fill="#FD4D35"/>
        </symbol>
        <symbol id="price-cross" viewBox="0 0 50 19" fill="none">
            <line x1="1.1239" y1="17.5959" x2="48.6893" y2="2.04948" stroke="#FD4D35" stroke-width="2"/>
            <line x1="1.34681" y1="1.93742" x2="49.3688" y2="17.6334" stroke="#FD4D35" stroke-width="2"/>
        </symbol> 
    </defs>
</svg>